<svg width="54" height="54" viewBox="0 0 54 54" fill="none" xmlns="http://www.w3.org/2000/svg">
<g filter="url(#filter0_d)">
<path d="M27 15C20.3711 15 15 20.3711 15 27C15 33.6289 20.3711 39 27 39C33.6289 39 39 33.6289 39 27C39 20.3711 33.6289 15 27 15ZM27 17C32.5234 17 37 21.4766 37 27C37 32.5234 32.5234 37 27 37C21.4766 37 17 32.5234 17 27C17 21.4766 21.4766 17 27 17ZM27 20.8125C26.8164 20.8125 26.6641 20.8086 26.5 20.8438C26.3359 20.8789 26.1836 20.9688 26.0625 21.0625C25.9414 21.1562 25.8516 21.2852 25.7812 21.4375C25.7109 21.5898 25.6875 21.7695 25.6875 22C25.6875 22.2266 25.7109 22.4062 25.7812 22.5625C25.8516 22.7188 25.9414 22.8438 26.0625 22.9375C26.1836 23.0312 26.3359 23.0859 26.5 23.125C26.6641 23.1641 26.8164 23.1875 27 23.1875C27.1797 23.1875 27.3711 23.1641 27.5312 23.125C27.6914 23.0859 27.8164 23.0312 27.9375 22.9375C28.0586 22.8438 28.1484 22.7188 28.2188 22.5625C28.2891 22.4102 28.3438 22.2266 28.3438 22C28.3438 21.7695 28.2891 21.5898 28.2188 21.4375C28.1484 21.2852 28.0586 21.1562 27.9375 21.0625C27.8164 20.9688 27.6914 20.8789 27.5312 20.8438C27.3711 20.8086 27.1797 20.8125 27 20.8125ZM25.7812 24.1562V33.125H28.2188V24.1562H25.7812Z" fill="black"/>
</g>
<defs>
<filter id="filter0_d" x="0" y="0" width="54" height="54" filterUnits="userSpaceOnUse" color-interpolation-filters="sRGB">
<feFlood flood-opacity="0" result="BackgroundImageFix"/>
<feColorMatrix in="SourceAlpha" type="matrix" values="0 0 0 0 0 0 0 0 0 0 0 0 0 0 0 0 0 0 127 0"/>
<feOffset/>
<feGaussianBlur stdDeviation="7.5"/>
<feColorMatrix type="matrix" values="0 0 0 0 0 0 0 0 0 0 0 0 0 0 0 0 0 0 0.5 0"/>
<feBlend mode="normal" in2="BackgroundImageFix" result="effect1_dropShadow"/>
<feBlend mode="normal" in="SourceGraphic" in2="effect1_dropShadow" result="shape"/>
</filter>
</defs>
</svg>
