<svg width="82" height="82" viewBox="0 0 82 82" fill="none" xmlns="http://www.w3.org/2000/svg">
<g filter="url(#filter0_d)">
<path d="M41 16C27.2335 16 16 27.2354 16 41C16 54.7665 27.2354 66 41 66C54.7665 66 66 54.7646 66 41C66 27.2335 54.7646 16 41 16ZM41 63.0703C28.8304 63.0703 18.9297 53.1696 18.9297 41C18.9297 28.8304 28.8304 18.9297 41 18.9297C53.1696 18.9297 63.0703 28.8304 63.0703 41C63.0703 53.1696 53.1696 63.0703 41 63.0703Z" fill="white"/>
<path d="M54.0799 39.4867L58.2883 35.7884L54.1578 28.6339L48.8046 30.4447C48.0008 29.8466 47.1418 29.3472 46.2365 28.9513L45.1307 23.4219H36.8695L35.7637 28.9513C34.8584 29.3472 33.9994 29.847 33.1956 30.4447L27.8424 28.6339L23.7119 35.7884L27.9206 39.4867C27.7818 40.5518 27.7822 41.4539 27.9206 42.5129L23.7119 46.212L27.8424 53.3665L33.1956 51.5553C33.9994 52.1534 34.8588 52.6531 35.7637 53.0487L36.8695 58.5781H45.1307L46.2365 53.0487C47.1414 52.6531 48.0008 52.1534 48.8046 51.5553L54.1578 53.3661L58.2883 46.2116L54.0796 42.5129C54.218 41.4524 54.2184 40.5502 54.0799 39.4867ZM54.5503 46.827L52.8215 49.8215L48.2053 48.2598C46.2648 49.9001 45.7208 50.1492 43.6815 50.8866L42.7289 55.6484H39.2713L38.3187 50.8866C35.9895 50.0446 35.4978 49.699 33.7949 48.2598L29.1787 49.8215L27.4499 46.827L31.0807 43.636C30.6318 41.1503 30.6306 40.8558 31.0807 38.3637L27.4499 35.1727L29.1787 32.1785L33.7949 33.7399C35.7396 32.0961 36.2874 31.8478 38.3187 31.1134L39.2713 26.3516H42.7289L43.6815 31.1134C46.0103 31.9554 46.5028 32.301 48.2053 33.7402L52.8215 32.1785L54.5503 35.173L50.9195 38.3637C51.3704 40.8585 51.3681 41.153 50.9195 43.636L54.5503 46.827Z" fill="white"/>
<path d="M41 36.6055C38.5769 36.6055 36.6055 38.5769 36.6055 41C36.6055 43.4231 38.5769 45.3945 41 45.3945C43.4231 45.3945 45.3945 43.4231 45.3945 41C45.3945 38.5769 43.4231 36.6055 41 36.6055ZM41 42.4648C40.1924 42.4648 39.5352 41.8076 39.5352 41C39.5352 40.1924 40.1924 39.5352 41 39.5352C41.8076 39.5352 42.4648 40.1924 42.4648 41C42.4648 41.8076 41.8076 42.4648 41 42.4648Z" fill="white"/>
</g>
<defs>
<filter id="filter0_d" x="0" y="0" width="82" height="82" filterUnits="userSpaceOnUse" color-interpolation-filters="sRGB">
<feFlood flood-opacity="0" result="BackgroundImageFix"/>
<feColorMatrix in="SourceAlpha" type="matrix" values="0 0 0 0 0 0 0 0 0 0 0 0 0 0 0 0 0 0 127 0"/>
<feOffset/>
<feGaussianBlur stdDeviation="8"/>
<feColorMatrix type="matrix" values="0 0 0 0 0 0 0 0 0 0 0 0 0 0 0 0 0 0 0.5 0"/>
<feBlend mode="normal" in2="BackgroundImageFix" result="effect1_dropShadow"/>
<feBlend mode="normal" in="SourceGraphic" in2="effect1_dropShadow" result="shape"/>
</filter>
</defs>
</svg>
